<svg width="24" height="24" viewBox="0 0 24 24" fill="none" xmlns="http://www.w3.org/2000/svg">
<path d="M9.28 20.31C9.45 20.79 8.92999 21.23 8.48999 20.97L5.34 19.18C4.77 18.85 4.42001 18.06 4.54001 17.42L5.48001 12.75C5.59001 12.2 6.35001 12.15 6.54001 12.67L9.28 20.31Z" fill="#F53838"/>
<path d="M18.66 19.18L15.5 20.98C15.06 21.23 14.54 20.8 14.71 20.32L17.46 12.61C17.65 12.09 18.41 12.14 18.52 12.69L19.47 17.42C19.58 18.06 19.23 18.85 18.66 19.18Z" fill="#F53838"/>
<path d="M17.08 7.32001C17.32 7.62001 17.39 8.02001 17.26 8.38001L12.52 21.63C12.35 22.12 11.66 22.12 11.49 21.63L6.74999 8.39001C6.61999 8.03001 6.68999 7.63001 6.92999 7.33001L10.75 2.63001C11.44 1.80001 12.58 1.80001 13.28 2.63001L17.08 7.32001Z" fill="#F53838"/>
</svg>
