<svg width="16" height="16" viewBox="0 0 16 16" fill="none" xmlns="http://www.w3.org/2000/svg">
<path id="Vector" d="M9.29997 1.62472L10.62 4.26472C10.8 4.62472 11.28 4.98472 11.68 5.04472L14.07 5.44472C15.6 5.70472 15.96 6.80472 14.86 7.90472L13 9.77472C12.69 10.0847 12.51 10.6947 12.61 11.1347L13.14 13.4447C13.56 15.2647 12.59 15.9747 10.98 15.0247L8.73997 13.6947C8.32997 13.4547 7.66997 13.4547 7.25997 13.6947L5.00997 15.0147C3.39997 15.9647 2.42997 15.2547 2.84997 13.4347L3.37997 11.1247C3.47997 10.6947 3.29997 10.0847 2.98997 9.76472L1.13997 7.91472C0.0399733 6.81472 0.399973 5.70472 1.92997 5.45472L4.31997 5.05472C4.71997 4.98472 5.19997 4.63472 5.37997 4.27472L6.69997 1.63472C7.40997 0.19472 8.58997 0.19472 9.29997 1.62472Z" fill="#F3CC40"/>
</svg>
