<svg width="24" height="25" viewBox="0 0 24 25" fill="none" xmlns="http://www.w3.org/2000/svg">
<path d="M22 16.69C22 20.33 19.83 22.5 16.19 22.5H15C14.45 22.5 14 22.05 14 21.5V15.73C14 15.46 14.22 15.23 14.49 15.23L16.25 15.2C16.39 15.19 16.51 15.09 16.54 14.95L16.89 13.04C16.92 12.86 16.78 12.69 16.59 12.69L14.46 12.72C14.18 12.72 13.96 12.5 13.95 12.23L13.91 9.78C13.91 9.62 14.04 9.48001 14.21 9.48001L16.61 9.44C16.78 9.44 16.91 9.31001 16.91 9.14001L16.87 6.73999C16.87 6.56999 16.74 6.44 16.57 6.44L13.87 6.48001C12.21 6.51001 10.89 7.87 10.92 9.53L10.97 12.28C10.98 12.56 10.76 12.78 10.48 12.79L9.28 12.81C9.11 12.81 8.98001 12.94 8.98001 13.11L9.01001 15.01C9.01001 15.18 9.14 15.31 9.31 15.31L10.51 15.29C10.79 15.29 11.01 15.51 11.02 15.78L11.11 21.48C11.12 22.04 10.67 22.5 10.11 22.5H7.81C4.17 22.5 2 20.33 2 16.68V8.31C2 4.67 4.17 2.5 7.81 2.5H16.19C19.83 2.5 22 4.67 22 8.31V16.69Z" fill="#F53838"/>
</svg>
