<svg width="24" height="25" viewBox="0 0 24 25" fill="none" xmlns="http://www.w3.org/2000/svg">
<path d="M21.98 11.91C21.64 6.10995 16.37 1.63996 10.3 2.63996C6.11998 3.32996 2.76999 6.71994 2.11999 10.8999C1.73999 13.3199 2.24001 15.6099 3.33001 17.4999L2.43999 20.8099C2.23999 21.5599 2.92998 22.2399 3.66998 22.0299L6.92999 21.13C8.40999 22 10.14 22.4999 11.99 22.4999C17.63 22.4999 22.31 17.53 21.98 11.91ZM16.88 16.2199C16.79 16.3999 16.68 16.57 16.54 16.73C16.29 17 16.02 17.2 15.72 17.32C15.42 17.45 15.09 17.51 14.74 17.51C14.23 17.51 13.68 17.39 13.11 17.14C12.53 16.89 11.96 16.5599 11.39 16.1499C10.81 15.7299 10.27 15.2599 9.74999 14.7499C9.22999 14.2299 8.76997 13.6799 8.34997 13.1099C7.93997 12.5399 7.60999 11.9699 7.36999 11.3999C7.12999 10.8299 7.01 10.28 7.01 9.75996C7.01 9.41996 7.06999 9.08996 7.18999 8.78996C7.30999 8.47996 7.50001 8.19996 7.77001 7.94996C8.09001 7.62996 8.43999 7.47996 8.80999 7.47996C8.94999 7.47996 9.08996 7.50995 9.21996 7.56995C9.34996 7.62995 9.46999 7.71995 9.55999 7.84995L10.72 9.48994C10.81 9.61994 10.88 9.72994 10.92 9.83994C10.97 9.94994 10.99 10.0499 10.99 10.1499C10.99 10.2699 10.95 10.39 10.88 10.51C10.81 10.63 10.72 10.7499 10.6 10.8699L10.22 11.2699C10.16 11.3299 10.14 11.3899 10.14 11.4699C10.14 11.5099 10.15 11.5499 10.16 11.5899C10.18 11.6299 10.19 11.66 10.2 11.6899C10.29 11.86 10.45 12.0699 10.67 12.3299C10.9 12.5899 11.14 12.8599 11.4 13.1199C11.67 13.3899 11.93 13.6299 12.2 13.8599C12.46 14.0799 12.68 14.23 12.85 14.32C12.88 14.33 12.91 14.3499 12.94 14.3599C12.98 14.3799 13.02 14.38 13.07 14.38C13.16 14.38 13.22 14.35 13.28 14.29L13.66 13.91C13.79 13.78 13.91 13.69 14.02 13.63C14.14 13.56 14.25 13.5199 14.38 13.5199C14.48 13.5199 14.58 13.5399 14.69 13.5899C14.8 13.6399 14.92 13.7 15.04 13.79L16.7 14.9699C16.83 15.0599 16.92 15.17 16.98 15.29C17.03 15.42 17.06 15.5399 17.06 15.6799C17 15.8499 16.96 16.0399 16.88 16.2199Z" fill="#F53838"/>
</svg>
